<?xml version="1.0" ?><svg id="Layer_1" viewBox="0 0 750 750" xmlns="http://www.w3.org/2000/svg"><path d="M168.92,284.47c13.93,2.49,11.12-18.65,19.61-25.36,37.96-51.47,96.14-92.59,158.98-55.47,29.41,9.88,52.08,31.17,79.19,45.35,60.42,35.01,112.44,35.97,144.26-34.15,14.92-29.24-7.23-42.87-12.49-21.94-12.22,30.5-45.58,57.35-79.79,53.08-24.21-2.75-42.72-21.02-62.34-33.84-19.76-17.21-43.86-26.15-69.5-30.05-35.17-10.91-76.36-18.72-109.28,2.59-21.16,12.76-96.57,74.53-68.63,99.8Z"/><path d="M186.23,413.01c35.16-55.2,105.65-78.36,167.83-61.21,17.84,5.38,35.46,11.22,52.33,19.17,15.41,6.2,31.59,10.5,46.33,18.31,16.44,8.43,32.98,18.96,52.13,18.69,30.69-2.17,55.33-27.77,69.55-53.36,7.59-9.77-4.38-29.41-14.28-16.33-9.34,16.85-27.33,26.87-43.57,36.47-16.56,8.82-35.82,4.3-51.75-3.67-38.56-20.17-77.98-47.02-123.3-44.47-41.45,4.96-88-.24-123.4,25.88-25.96,18.46-51.18,42.94-60.95,73.97-1.58,8.23-4.94,22.07,5.65,25.36,12.71,1.98,9.25-23.69,23.43-38.81Z"/><path d="M582.44,449.54c-6.14,3.2-7.72,10.98-11.37,16.45-4.45,7.9-10.1,15-16.56,21.35-8.01,9.55-19.89,12.64-31.93,12.43-20.69,2.18-41.81,.45-61.15-7.59-26.38-11.63-52.94-23.56-82.18-25.55-13.4-1.48-26.79,.4-40.17,1.32-25.09,1.7-50.39,1.68-75.15,6.53-20.53,3.92-38.76,14-54.6,27.42-21.22,16.63-47.67,37.27-44.37,67.38,.93,11.49,14.44,13.22,16.86,1.6,1.19-8.06,3.28-15.97,8.59-22.41,46.39-58.23,125.48-75.04,194.97-53.65,49.31,12.81,97.6,32.3,149.12,33.86,32.6-.52,46.23-35.74,58.54-60.53,4.33-7.29-.6-21.83-10.62-18.61Z"/></svg>